<?xml version="1.0" encoding="UTF-8" standalone="no"?>
<svg
   xmlns:dc="http://purl.org/dc/elements/1.1/"
   xmlns:cc="http://creativecommons.org/ns#"
   xmlns:rdf="http://www.w3.org/1999/02/22-rdf-syntax-ns#"
   xmlns:svg="http://www.w3.org/2000/svg"
   xmlns="http://www.w3.org/2000/svg"
   xmlns:sodipodi="http://sodipodi.sourceforge.net/DTD/sodipodi-0.dtd"
   xmlns:inkscape="http://www.inkscape.org/namespaces/inkscape"
   width="210mm"
   height="297mm"
   viewBox="0 0 210 297"
   version="1.1"
   id="svg8"
   inkscape:version="1.0.2-2 (e86c870879, 2021-01-15)"
   sodipodi:docname="tekening.svg">
  <defs
     id="defs2" />
  <sodipodi:namedview
     id="base"
     pagecolor="#ffffff"
     bordercolor="#666666"
     borderopacity="1.0"
     inkscape:pageopacity="0.0"
     inkscape:pageshadow="2"
     inkscape:zoom="0.35"
     inkscape:cx="400"
     inkscape:cy="560"
     inkscape:document-units="mm"
     inkscape:current-layer="layer1"
     inkscape:document-rotation="0"
     showgrid="false"
     inkscape:window-width="1451"
     inkscape:window-height="1041"
     inkscape:window-x="26"
     inkscape:window-y="0"
     inkscape:window-maximized="0" />
  <metadata
     id="metadata5">
    <rdf:RDF>
      <cc:Work
         rdf:about="">
        <dc:format>image/svg+xml</dc:format>
        <dc:type
           rdf:resource="http://purl.org/dc/dcmitype/StillImage" />
        <dc:title></dc:title>
      </cc:Work>
    </rdf:RDF>
  </metadata>
  <g
     inkscape:label="Laag 1"
     inkscape:groupmode="layer"
     id="layer1">
    <path
       style="fill:none;stroke:#000000;stroke-width:0.264583px;stroke-linecap:butt;stroke-linejoin:miter;stroke-opacity:1"
       d="m 19.654762,112.6369 c 18.198852,-2.15619 36.836779,-1.5119 55.184522,-1.5119 3.131029,0 23.336832,0.85364 25.702386,-1.51191"
       id="path833" />
  </g>
    <g
     inkscape:label="Laag 2"
     inkscape:groupmode="layer"
     id="layer1">
<path d="M15.1 39.1c-1.7.4-4.3.5-5.2-.5s-1.4-3-1.4-6V17.4H18V11H8.5V3.3A3.4 3.4 0 0 0 5 0H0v31.6q0 8 3 11.8a9.5 9.5 0 0 0 4.5 3 15.1 15.1 0 0 0 7.2.5l.9-.2a5.3 5.3 0 0 0 2-.7 3.5 3.5 0 0 0 1.2-1.8c.4-1.4.3-3.4-.8-4.5a3.4 3.4 0 0 0-3-.5zM235.2 10.9v19.3q0 9.4 8 9.4t8-9.4V10.9h8.5v19.3q0 7.6-4 12.2T243.3 47q-8.5 0-12.5-4.6t-4-12.2v-16a3.4 3.4 0 0 1 3.4-3.3h5zM221.1 47H216a3.4 3.4 0 0 1-3.4-3.4V3.3A3.4 3.4 0 0 1 216 0h5.1zM59.4 29.4v1.1a9.4 9.4 0 0 1-.1 1.2h-26a8.5 8.5 0 0 0 1 3.3 8.6 8.6 0 0 0 2.1 2.7 10.7 10.7 0 0 0 3 1.7 10 10 0 0 0 3.6.7 11.4 11.4 0 0 0 5.5-1.2 10.3 10.3 0 0 0 1.7-1.2 3.4 3.4 0 0 1 4.3-.1l3.3 2.6Q52.8 47 43 47a21 21 0 0 1-7.3-1.2 17.3 17.3 0 0 1-5.8-3.5 15.9 15.9 0 0 1-3.9-5.6 19.2 19.2 0 0 1-1.4-7.5 19.6 19.6 0 0 1 1.4-7.5 16.7 16.7 0 0 1 9.6-9.5 19.2 19.2 0 0 1 7.1-1.3 18 18 0 0 1 6.6 1.1 14.3 14.3 0 0 1 5.3 3.5 16.2 16.2 0 0 1 3.4 5.8 23.9 23.9 0 0 1 1.2 8m-8.5-3.8a10.6 10.6 0 0 0-.5-3.1 7 7 0 0 0-4-4.5 8.8 8.8 0 0 0-3.5-.6 9.6 9.6 0 0 0-6.6 2.3 8.4 8.4 0 0 0-3 6zM300 29.4v1.1a9.4 9.4 0 0 1-.1 1.2h-26a8.4 8.4 0 0 0 1 3.3 8.6 8.6 0 0 0 2.1 2.7 10.8 10.8 0 0 0 3 1.7 10 10 0 0 0 3.6.7 11.4 11.4 0 0 0 5.4-1.2 10.2 10.2 0 0 0 1.8-1.2 3.4 3.4 0 0 1 4.3-.1l3.3 2.6q-5 6.8-14.7 6.8a20.9 20.9 0 0 1-7.3-1.2 17.3 17.3 0 0 1-5.8-3.5 15.9 15.9 0 0 1-3.9-5.6 19.3 19.3 0 0 1-1.4-7.5 19.6 19.6 0 0 1 1.4-7.5 16.7 16.7 0 0 1 9.6-9.5 19.2 19.2 0 0 1 7.1-1.3A18 18 0 0 1 290 12a14.3 14.3 0 0 1 5.2 3.5 16.2 16.2 0 0 1 3.5 5.8 23.9 23.9 0 0 1 1.2 8m-8.5-3.8a10.6 10.6 0 0 0-.5-3.1 7 7 0 0 0-4-4.4 8.8 8.8 0 0 0-3.6-.7 9.6 9.6 0 0 0-6.5 2.3 8.4 8.4 0 0 0-3 6zM111 47a3.2 3.2 0 0 1-3.2-3.2V26.1q0-15.3 13.6-15.3 8.8 0 11.8 7 2.9-7 11.7-7 13.6 0 13.6 15.3v21h-5a3.4 3.4 0 0 1-3.5-3.5v-18q0-4-1.7-5.7a6 6 0 0 0-4.5-1.8 6.3 6.3 0 0 0-4.6 1.8q-1.8 1.8-1.8 5.7v18A3.4 3.4 0 0 1 134 47h-5V25.6q0-4-1.9-5.7a6.5 6.5 0 0 0-9 0q-1.8 1.8-1.8 5.7V47H111z" fill="#1c3f6e"></path>
  </g>
</svg>

