<?xml version="1.0" standalone="no"?>
<!DOCTYPE svg PUBLIC "-//W3C//DTD SVG 20010904//EN"
 "http://www.w3.org/TR/2001/REC-SVG-20010904/DTD/svg10.dtd">
<svg version="1.0" xmlns="http://www.w3.org/2000/svg"
 width="1088.000000pt" height="1280.000000pt" viewBox="0 0 1088.000000 1280.000000"
 preserveAspectRatio="xMidYMid meet">
<metadata>
Created by potrace 1.15, written by Peter Selinger 2001-2017
</metadata>
<g transform="translate(0.000000,1280.000000) scale(0.100000,-0.100000)"
fill="#000000" stroke="none">
<path d="M5662 12523 c-20 -17 -26 -37 -23 -75 0 -9 16 -35 35 -57 19 -22 44
-71 56 -108 25 -75 37 -96 52 -87 6 4 8 38 3 90 -5 67 -3 96 11 140 17 54 17
56 -3 82 -26 35 -98 43 -131 15z"/>
<path d="M5924 12505 c-24 -24 -25 -30 -19 -98 5 -57 2 -87 -15 -142 -38 -130
-20 -141 42 -27 23 42 64 100 90 128 38 41 48 58 48 86 0 73 -92 106 -146 53z"/>
<path d="M5412 12427 c-30 -32 -29 -87 1 -114 12 -11 44 -28 70 -37 27 -10 76
-42 110 -71 64 -53 105 -80 113 -72 3 2 -25 44 -61 93 -38 51 -72 110 -80 138
-21 68 -39 86 -90 86 -30 0 -47 -6 -63 -23z"/>
<path d="M6132 12395 c-12 -9 -28 -38 -37 -68 -10 -35 -34 -75 -71 -121 -72
-86 -62 -105 23 -42 74 54 115 76 143 76 32 0 58 17 75 49 38 75 -62 155 -133
106z"/>
<path d="M5280 12235 c-31 -33 -32 -87 -2 -118 19 -18 34 -22 105 -23 46 -1
115 -11 156 -23 41 -11 78 -18 83 -15 19 12 3 27 -81 68 -49 25 -98 58 -110
73 -39 53 -54 63 -91 63 -26 0 -43 -7 -60 -25z"/>
<path d="M6256 12186 c-26 -28 -65 -54 -106 -71 -122 -53 -120 -74 5 -56 49 8
109 10 140 6 86 -10 136 28 126 100 -4 33 -48 65 -88 65 -30 0 -43 -8 -77 -44z"/>
<path d="M6003 11963 c-10 -3 -11 -23 -7 -71 6 -65 5 -68 -28 -112 -49 -64
-58 -83 -69 -152 -17 -106 -48 -142 -148 -172 -51 -15 -181 -23 -181 -11 0 3
7 16 15 28 8 12 25 63 38 112 14 50 34 109 45 132 29 56 95 110 160 130 30 10
57 24 60 32 8 20 -40 58 -91 72 -87 23 -176 -18 -281 -131 -100 -109 -146
-228 -126 -327 l12 -54 -76 -118 c-85 -132 -105 -176 -87 -194 15 -15 46 2
166 88 98 70 114 74 189 49 116 -40 263 8 354 113 25 29 49 53 54 53 4 0 12
-19 19 -42 24 -89 -14 -206 -94 -289 -23 -25 -108 -89 -187 -144 -272 -187
-395 -307 -473 -464 l-42 -84 0 -116 c0 -109 2 -120 31 -181 17 -36 50 -94 72
-129 23 -35 42 -72 42 -81 0 -10 -12 -44 -27 -76 -24 -51 -27 -72 -28 -154 0
-84 3 -101 27 -145 32 -59 65 -98 135 -154 42 -34 56 -54 78 -111 14 -38 39
-86 54 -107 53 -73 169 -114 271 -96 66 12 61 36 -20 85 -36 21 -94 69 -130
106 -104 108 -150 220 -150 368 0 277 165 497 408 545 115 22 297 -2 437 -59
28 -11 88 -43 134 -71 96 -58 96 -58 291 -66 357 -14 552 -65 748 -195 75 -49
147 -109 428 -354 136 -118 -9 117 -176 285 -92 93 -209 181 -315 236 -44 23
-174 79 -290 126 -336 136 -493 211 -603 290 -23 17 -124 120 -223 230 l-181
198 51 83 c125 204 166 337 159 510 -9 192 -72 339 -203 472 -53 54 -83 76
-125 91 -68 25 -101 32 -117 26z"/>
<path d="M5699 11642 c-25 -21 -30 -71 -9 -96 13 -16 67 -21 86 -8 13 9 34 46
34 62 0 18 -48 60 -68 60 -11 0 -30 -8 -43 -18z"/>
<path d="M6665 10543 c-55 -5 -75 -16 -75 -44 0 -35 302 -171 495 -223 55 -14
134 -35 175 -46 118 -32 262 -108 394 -209 153 -117 170 -111 67 23 -152 199
-395 375 -618 449 -148 49 -271 62 -438 50z"/>
<path d="M6377 10013 c-14 -14 -6 -89 13 -120 33 -55 122 -99 249 -123 29 -5
126 -17 215 -25 250 -23 315 -50 441 -190 101 -110 133 -112 84 -5 -31 70 -91
142 -151 184 -93 63 -166 83 -427 117 -310 39 -331 46 -377 125 -26 43 -34 50
-47 37z"/>
<path d="M8110 9562 c-15 -5 -30 -21 -30 -33 0 -3 22 -34 50 -68 27 -34 55
-80 61 -102 16 -53 63 -92 142 -117 67 -22 218 -103 319 -173 54 -36 88 -45
88 -21 0 14 -251 282 -320 342 -153 132 -258 191 -310 172z"/>
<path d="M7130 9453 c-8 -3 -33 -23 -55 -44 -52 -49 -85 -61 -136 -50 -45 10
-51 4 -63 -61 -9 -49 -45 -91 -102 -118 -64 -31 -135 -24 -205 19 -29 18 -57
30 -64 27 -7 -2 -26 -29 -43 -59 -54 -95 -163 -131 -261 -86 -29 12 -48 16
-54 10 -16 -16 12 -68 54 -105 97 -83 256 -73 325 20 15 22 31 43 35 47 3 5
32 1 64 -9 126 -36 232 -1 299 100 38 57 40 58 78 53 53 -7 95 7 132 42 41 40
86 57 171 66 39 4 79 12 90 18 34 17 45 44 23 52 -7 2 -62 22 -122 44 -106 40
-134 45 -166 34z"/>
<path d="M7553 9325 c-81 -22 -152 -62 -215 -123 -61 -58 -67 -72 -42 -92 13
-11 27 -7 92 27 213 113 368 120 554 23 43 -22 82 -40 88 -40 44 0 -63 117
-149 164 -103 55 -220 70 -328 41z"/>
<path d="M7630 9145 c-130 -73 -201 -93 -340 -96 -94 -2 -125 -10 -125 -34 0
-36 49 -50 180 -49 107 0 128 3 190 28 138 54 126 54 185 7 59 -47 89 -57 119
-41 29 15 27 23 -21 83 -24 29 -54 67 -68 85 -35 44 -65 48 -120 17z"/>
<path d="M8330 9147 c0 -7 23 -35 51 -62 69 -68 253 -273 378 -423 236 -282
373 -377 561 -389 86 -6 130 7 130 36 0 16 -9 21 -57 26 -128 16 -239 71 -334
168 -27 28 -86 104 -131 171 -219 324 -291 395 -471 457 -89 31 -127 36 -127
16z"/>
<path d="M7940 9018 c0 -7 29 -71 65 -143 95 -188 112 -285 76 -428 -46 -179
-125 -257 -260 -259 -34 0 -61 -4 -61 -9 0 -19 64 -58 104 -64 75 -12 145 16
221 86 208 195 184 507 -59 766 -56 60 -86 78 -86 51z"/>
<path d="M6917 8994 c-33 -33 116 -108 288 -146 89 -19 421 -18 459 2 40 20
54 45 40 68 -21 33 -58 37 -202 19 -218 -27 -315 -20 -482 37 -79 27 -93 30
-103 20z"/>
<path d="M5846 8974 c-7 -19 10 -45 60 -88 97 -83 213 -142 356 -181 93 -26
143 -67 225 -185 68 -99 142 -179 207 -225 23 -17 33 -39 60 -140 19 -66 46
-151 62 -190 24 -58 29 -84 29 -155 0 -80 -1 -85 -26 -99 -24 -13 -34 -11
-135 22 -135 44 -196 53 -249 35 -32 -11 -40 -18 -40 -38 0 -18 7 -27 25 -32
14 -4 45 -13 70 -20 59 -17 66 -43 13 -57 -21 -5 -60 -12 -88 -16 -27 -4 -60
-13 -72 -21 -44 -28 -19 -74 39 -74 13 0 68 16 123 35 55 19 106 35 113 35 26
0 5 -25 -54 -66 -68 -47 -95 -85 -78 -111 25 -40 85 -20 205 68 106 78 149 94
254 94 79 0 96 -4 144 -28 46 -25 56 -27 68 -15 20 20 9 37 -57 90 -75 60
-104 119 -97 191 4 45 0 62 -33 132 -44 93 -75 220 -66 270 10 50 47 73 90 56
101 -42 109 -43 143 -27 36 17 66 66 61 99 -4 30 -55 46 -150 46 -94 1 -176
26 -250 74 -73 49 -220 202 -287 300 -30 43 -67 85 -83 93 -18 9 -65 17 -116
19 -99 3 -173 25 -293 86 -86 43 -161 53 -173 23z"/>
<path d="M8340 8974 c0 -8 33 -61 73 -117 154 -214 276 -415 313 -515 47 -124
65 -134 147 -82 54 34 66 64 43 108 -37 71 -368 456 -487 566 -61 56 -89 69
-89 40z"/>
<path d="M8110 8966 c0 -8 38 -82 84 -163 47 -81 97 -183 111 -226 46 -139 44
-310 -6 -455 -41 -120 -117 -172 -251 -172 -70 0 -78 -2 -78 -19 0 -30 78 -90
139 -108 61 -17 148 -13 204 11 46 19 105 72 126 115 84 166 25 543 -124 789
-72 120 -205 268 -205 228z"/>
<path d="M6670 8908 c1 -29 90 -106 181 -157 144 -80 295 -116 554 -130 349
-20 528 26 486 126 -6 16 -26 38 -44 48 -47 28 -198 25 -422 -10 -324 -49
-505 -21 -692 106 -45 31 -63 36 -63 17z"/>
<path d="M6534 8848 c16 -78 111 -187 241 -273 145 -96 298 -157 465 -186 103
-17 304 -18 355 0 78 26 106 74 81 135 -11 26 -25 38 -60 51 -42 16 -64 17
-199 9 -84 -5 -219 -9 -302 -8 -127 1 -160 5 -215 23 -117 41 -212 112 -300
226 -49 64 -76 73 -66 23z"/>
<path d="M8326 8828 c9 -18 41 -75 71 -126 106 -180 172 -375 194 -570 14
-126 -2 -360 -31 -456 -35 -112 -120 -206 -240 -266 -94 -47 -105 -80 -37
-110 50 -23 143 -26 191 -6 154 64 260 321 260 626 -1 203 -41 368 -139 565
-55 111 -145 245 -221 329 -49 55 -72 61 -48 14z"/>
<path d="M9045 8250 c-4 -6 15 -42 41 -80 36 -53 48 -81 52 -118 16 -176 -157
-242 -276 -106 -23 25 -46 67 -56 99 -30 94 -61 82 -51 -20 9 -79 35 -153 87
-238 39 -65 41 -73 40 -138 -3 -108 36 -159 123 -159 67 0 135 56 160 131 12
35 30 59 66 90 74 62 92 104 87 203 -8 141 -85 263 -206 325 -46 24 -58 26
-67 11z"/>
<path d="M9595 8203 c-10 -55 -23 -73 -62 -90 -46 -19 -98 -10 -186 30 -92 41
-100 29 -38 -60 59 -83 114 -130 178 -149 120 -36 213 36 213 166 0 54 -10 81
-43 118 -31 34 -54 29 -62 -15z"/>
<path d="M8866 8190 c-50 -60 -43 -140 17 -197 42 -40 69 -53 110 -53 58 0 80
27 85 101 3 55 0 69 -20 99 -56 82 -145 105 -192 50z"/>
<path d="M7079 8154 c-10 -13 -8 -24 15 -71 15 -30 25 -57 24 -59 -2 -2 -25 5
-51 14 -36 13 -49 14 -59 4 -9 -9 -6 -18 14 -39 37 -39 50 -78 40 -117 -13
-45 0 -69 60 -115 29 -22 64 -54 76 -71 46 -61 88 -26 77 63 -6 46 -3 56 19
87 59 81 59 103 -4 127 -29 12 -42 23 -46 42 -12 59 -37 112 -61 131 -31 24
-85 26 -104 4z"/>
<path d="M9384 7866 c-38 -38 -45 -82 -20 -139 27 -64 111 -114 173 -102 101
19 93 189 -11 250 -61 35 -100 33 -142 -9z"/>
<path d="M9636 7862 c-2 -4 11 -31 29 -61 59 -93 55 -160 -14 -228 -56 -56
-126 -53 -211 8 -73 53 -98 25 -57 -65 51 -111 138 -173 259 -184 110 -10 201
52 232 159 46 152 -10 276 -156 350 -60 30 -74 34 -82 21z"/>
<path d="M9271 7505 c0 -138 13 -273 28 -288 13 -13 142 13 148 30 3 7 -9 34
-26 61 -39 61 -85 162 -105 233 -9 31 -23 64 -31 75 -13 17 -14 4 -14 -111z"/>
<path d="M8797 7563 c-43 -49 -52 -206 -18 -314 51 -163 171 -234 299 -179 61
26 105 73 141 150 23 48 26 68 26 160 0 58 -3 117 -8 133 -11 41 -40 35 -62
-14 -29 -63 -74 -92 -153 -97 -50 -4 -74 0 -99 13 -33 18 -73 84 -73 121 0 19
-17 44 -30 44 -4 0 -14 -8 -23 -17z"/>
<path d="M9987 7541 c-83 -17 -78 -60 13 -117 139 -89 198 -162 291 -363 70
-151 84 -149 76 7 -12 237 -85 396 -207 454 -44 21 -123 29 -173 19z"/>
<path d="M9917 7353 c-15 -15 -4 -35 56 -100 141 -154 234 -419 252 -718 9
-150 44 -302 105 -451 27 -69 50 -130 50 -135 0 -6 -14 4 -32 22 -28 30 -32
32 -36 15 -2 -10 6 -53 19 -95 31 -102 31 -210 2 -267 -26 -49 -89 -107 -140
-130 -48 -21 -183 -24 -237 -5 -49 17 -111 73 -139 125 -19 35 -22 57 -22 151
1 97 4 118 28 177 37 88 25 108 -45 72 -127 -66 -207 -229 -195 -396 7 -81 44
-209 79 -268 130 -218 419 -279 642 -136 73 47 150 136 177 204 35 89 32 210
-9 326 -32 91 -36 122 -9 69 38 -72 147 -178 161 -155 3 5 -11 33 -31 63 -75
111 -104 246 -128 591 -16 227 -28 299 -70 418 -61 169 -157 325 -310 500 -93
106 -146 145 -168 123z"/>
<path d="M9940 7235 c0 -12 55 -115 61 -115 20 0 18 25 -5 64 -21 36 -56 68
-56 51z"/>
<path d="M9770 7165 c0 -13 5 -70 12 -125 20 -177 -22 -493 -103 -778 -32
-113 -38 -147 -28 -158 19 -24 35 -16 98 47 73 73 134 189 157 299 20 94 14
334 -11 425 -40 148 -104 315 -120 315 -3 0 -5 -11 -5 -25z"/>
<path d="M9890 7178 c0 -10 11 -50 24 -90 62 -186 93 -456 82 -729 -6 -147 -5
-168 10 -180 22 -18 149 -25 169 -9 41 34 -16 387 -104 651 -62 184 -180 417
-181 357z"/>
<path d="M9422 7144 c-18 -12 -29 -13 -56 -4 -18 6 -40 8 -48 5 -42 -16 -64
-155 -34 -213 26 -49 62 -75 113 -79 89 -8 143 53 143 162 0 59 -9 85 -43 123
-24 26 -44 28 -75 6z"/>
<path d="M8701 7112 c-5 -10 -19 -59 -31 -108 -212 -875 -546 -1540 -1010
-2005 -198 -198 -370 -324 -601 -438 -298 -148 -589 -209 -872 -183 -218 20
-352 77 -477 202 -163 163 -231 355 -197 554 44 252 236 426 471 426 123 0
195 -52 203 -147 8 -96 -56 -164 -156 -162 -88 1 -134 24 -185 92 -31 41 -63
48 -88 20 -58 -67 -70 -189 -26 -283 34 -74 66 -110 130 -145 47 -26 63 -30
138 -30 72 0 94 5 145 28 176 82 268 226 251 392 -19 184 -216 372 -427 407
-211 34 -533 -150 -672 -383 -58 -98 -81 -185 -81 -304 0 -126 25 -220 99
-371 147 -302 370 -495 665 -576 75 -20 108 -23 270 -23 195 0 260 9 434 61
419 125 871 407 1231 768 198 199 317 377 450 674 31 70 60 130 63 134 4 4 5
-30 4 -76 -5 -100 9 -172 47 -253 70 -147 188 -215 331 -192 184 29 367 212
410 410 19 84 9 219 -23 308 -27 78 -44 98 -64 78 -6 -7 -28 -73 -48 -147 -20
-74 -46 -149 -56 -167 -70 -113 -250 -168 -360 -110 -34 18 -51 36 -74 82 -27
52 -30 68 -29 139 1 54 9 101 23 140 31 87 13 96 -49 26 l-49 -55 25 85 c98
334 177 753 199 1058 7 92 4 108 -14 74z"/>
<path d="M8584 7069 c-6 -8 -19 -36 -29 -64 -76 -208 -196 -354 -322 -391 -80
-23 -118 -13 -174 47 -26 27 -54 49 -63 49 -10 0 -23 -15 -32 -35 -34 -83 -1
-181 77 -223 38 -20 53 -23 109 -18 92 8 193 59 259 132 65 70 133 209 167
337 25 98 30 195 8 166z"/>
<path d="M8941 6973 c-5 -10 -14 -58 -20 -108 -26 -197 -83 -353 -189 -516
-84 -130 -82 -158 9 -101 105 67 195 217 229 382 22 104 27 308 10 341 -13 24
-26 24 -39 2z"/>
<path d="M9606 6978 c-2 -7 -7 -37 -10 -66 -12 -116 -83 -182 -196 -182 -93 0
-137 39 -175 154 -27 83 -47 86 -82 9 -56 -122 -40 -257 44 -367 97 -127 281
-135 416 -17 50 44 97 144 104 218 9 94 -40 254 -80 261 -9 2 -19 -2 -21 -10z"/>
<path d="M9023 6798 c2 -208 -10 -269 -84 -427 -21 -46 -39 -92 -39 -103 0
-21 32 -36 97 -45 73 -10 89 16 104 174 10 111 1 281 -26 471 -8 56 -15 105
-15 107 0 3 -9 5 -20 5 -19 0 -19 -7 -17 -182z"/>
<path d="M7675 6616 c-126 -40 -247 -151 -314 -287 -67 -136 -76 -253 -31
-385 59 -170 153 -239 325 -237 117 1 290 65 425 156 66 45 176 154 225 222
43 61 109 184 103 191 -3 2 -21 -19 -42 -46 -124 -162 -286 -250 -462 -250
-146 0 -237 53 -293 170 -21 45 -26 69 -26 135 0 70 4 87 30 134 16 29 61 82
99 117 93 85 78 117 -39 80z"/>
<path d="M8449 6516 c-60 -88 -133 -168 -169 -187 -42 -23 -120 -25 -159 -5
-15 8 -47 31 -71 51 -34 29 -50 35 -78 33 -82 -7 -95 -108 -23 -180 45 -45
133 -73 198 -64 88 12 181 75 241 166 43 64 106 205 99 223 -2 7 -19 -10 -38
-37z"/>
<path d="M9583 6428 c-12 -15 -33 -129 -33 -182 0 -44 15 -76 35 -76 27 0 38
44 39 155 1 93 -1 110 -15 113 -9 1 -20 -3 -26 -10z"/>
<path d="M9195 6283 c-36 -75 -44 -132 -20 -149 40 -30 75 27 75 122 0 54 -7
84 -19 84 -4 0 -20 -26 -36 -57z"/>
<path d="M9395 6291 c-3 -5 -1 -91 5 -190 12 -226 -4 -608 -35 -826 -13 -90
-48 -252 -71 -328 -17 -57 -21 -84 -13 -93 11 -13 41 -19 151 -29 l67 -6 10
38 c16 61 28 490 20 708 -16 408 -88 799 -134 726z"/>
<path d="M7080 6100 c-61 -65 -93 -209 -71 -322 38 -194 183 -328 356 -328
202 0 587 173 773 347 102 96 77 114 -45 32 -90 -61 -216 -122 -299 -145 -150
-41 -359 -25 -494 37 -75 35 -113 68 -143 124 -19 35 -22 56 -22 159 0 135 -7
147 -55 96z"/>
<path d="M8804 6089 c-45 -13 -128 -91 -153 -144 -39 -82 -20 -196 40 -252 74
-68 182 -53 262 37 87 96 99 216 29 309 -40 54 -103 72 -178 50z"/>
<path d="M10015 6080 c-55 -23 -116 -120 -130 -207 -20 -124 62 -257 171 -278
80 -14 178 46 210 131 47 123 -22 313 -129 353 -33 13 -93 13 -122 1z"/>
<path d="M7985 5629 c-109 -65 -273 -145 -373 -184 -183 -71 -426 -113 -574
-101 -201 17 -310 93 -327 231 -8 67 -30 67 -54 0 -65 -185 73 -386 323 -471
85 -29 280 -27 379 4 211 66 464 247 669 476 84 95 69 111 -43 45z"/>
<path d="M7740 5273 c-303 -214 -716 -367 -1026 -381 -143 -6 -202 10 -272 73
-27 25 -60 45 -71 45 -63 0 -186 -94 -225 -172 -61 -122 -5 -228 153 -289 43
-17 85 -23 177 -27 334 -13 638 106 984 385 142 114 440 422 440 454 0 21 -31
4 -160 -88z"/>
<path d="M8366 5165 c-81 -155 -249 -359 -529 -638 -206 -206 -230 -237 -175
-237 41 1 187 67 276 127 233 154 406 406 491 711 19 69 15 112 -12 112 -7 0
-30 -34 -51 -75z"/>
<path d="M9060 5208 c-53 -85 -64 -221 -23 -289 39 -68 83 -63 161 17 58 59
66 91 27 99 -14 3 -36 7 -49 10 -30 6 -47 47 -55 128 -7 75 -29 87 -61 35z"/>
<path d="M10427 5202 c-21 -53 -44 -169 -58 -288 -12 -115 0 -257 33 -363 27
-90 90 -208 135 -254 65 -67 92 -70 72 -6 -6 19 -12 124 -14 234 -2 150 -8
230 -24 320 -26 146 -80 365 -93 383 -18 22 -35 13 -51 -26z"/>
<path d="M9759 5064 c-45 -24 -47 -25 -90 -9 -74 27 -81 28 -90 14 -14 -22
-10 -116 5 -154 21 -48 54 -62 113 -47 64 18 100 46 128 103 30 58 32 95 6
109 -23 12 -16 14 -72 -16z"/>
<path d="M8554 5027 c-12 -17 -44 -76 -72 -129 -138 -263 -232 -375 -509 -610
-91 -77 -153 -137 -153 -147 0 -10 17 -29 37 -42 26 -16 43 -38 54 -69 27 -74
42 -74 106 -5 68 74 196 266 294 440 97 174 279 548 279 574 0 30 -12 26 -36
-12z"/>
<path d="M8867 4992 c-33 -82 -66 -295 -48 -306 24 -15 151 80 151 113 0 26
-71 231 -80 231 -4 0 -15 -17 -23 -38z"/>
<path d="M8691 4913 c-103 -236 -333 -616 -620 -1022 -55 -79 -101 -152 -101
-162 0 -29 43 -24 126 16 133 64 266 178 365 315 86 117 177 318 224 490 51
190 84 448 59 457 -6 2 -30 -40 -53 -94z"/>
<path d="M10138 4998 c-67 -54 -136 -258 -173 -517 -38 -265 -115 -438 -301
-672 -90 -116 -74 -137 57 -72 103 51 219 168 277 281 97 185 130 341 143 667
5 127 12 251 15 278 7 51 6 53 -18 35z"/>
<path d="M9935 4992 c-5 -4 -32 -52 -59 -107 -53 -111 -117 -205 -167 -248
-29 -25 -31 -30 -17 -44 14 -14 21 -14 70 1 95 27 161 88 194 178 22 58 24
192 4 212 -8 9 -19 12 -25 8z"/>
<path d="M10263 4913 c-14 -48 -9 -451 5 -533 26 -146 52 -236 92 -316 42 -85
99 -148 146 -160 65 -17 160 44 190 122 24 64 12 98 -36 99 -45 2 -133 57
-184 116 -94 108 -176 389 -176 603 0 67 -6 96 -21 96 -5 0 -12 -12 -16 -27z"/>
<path d="M9255 4770 c-120 -40 -219 -134 -246 -233 -6 -23 -9 -75 -7 -115 6
-95 61 -210 117 -248 97 -64 264 -27 383 84 75 70 92 110 92 212 -2 230 -152
362 -339 300z"/>
<path d="M8899 4642 c-68 -44 -172 -163 -217 -250 -81 -155 -129 -359 -119
-506 16 -247 168 -380 432 -379 191 1 315 52 445 182 134 134 209 299 245 538
17 109 15 176 -6 189 -18 11 -32 -13 -56 -98 -34 -120 -94 -237 -146 -285
-105 -97 -312 -121 -450 -51 -99 50 -156 139 -165 260 -7 96 12 178 69 297 64
136 57 159 -32 103z"/>
<path d="M10189 4353 c-17 -43 -24 -479 -10 -603 24 -209 65 -310 140 -343 78
-34 174 -2 213 74 37 72 46 290 12 303 -7 3 -26 -5 -41 -18 -69 -57 -116 -61
-166 -13 -65 61 -100 210 -113 475 -4 78 -11 145 -15 148 -5 3 -14 -7 -20 -23z"/>
<path d="M5443 4293 c-18 -7 -16 -99 3 -186 35 -160 128 -298 258 -385 147
-98 269 -127 516 -119 136 3 183 9 265 31 174 45 422 183 389 216 -6 6 -51 -1
-129 -22 -113 -30 -130 -32 -305 -32 -172 -1 -192 1 -284 27 -231 64 -454 207
-622 397 -63 71 -73 80 -91 73z"/>
<path d="M7264 4016 c-260 -68 -420 -231 -448 -456 -22 -180 101 -363 295
-441 82 -33 218 -38 305 -11 91 28 181 83 267 162 90 83 188 205 181 225 -4 8
-9 15 -13 15 -3 0 -51 -22 -106 -50 -61 -31 -129 -57 -175 -66 -276 -58 -474
98 -416 326 28 109 86 182 203 257 59 37 69 63 26 63 -16 -1 -69 -12 -119 -24z"/>
<path d="M7589 4016 c-76 -22 -138 -57 -184 -107 -106 -114 -133 -270 -58
-341 53 -49 91 -62 183 -62 71 -1 94 4 141 26 73 33 128 84 165 150 26 48 29
62 29 143 0 99 -15 139 -68 179 -34 25 -140 32 -208 12z"/>
<path d="M4135 3923 c-49 -9 -184 -47 -230 -65 -282 -110 -436 -282 -438 -488
-1 -201 126 -401 346 -545 143 -93 259 -139 457 -180 478 -101 1037 -17 1531
230 133 67 160 88 141 107 -9 9 -30 8 -84 -5 -127 -29 -338 -65 -478 -81 -179
-21 -549 -21 -685 -1 -321 48 -528 168 -671 386 -93 143 -108 275 -46 402 26
51 52 84 118 144 46 42 84 80 84 84 0 10 -22 16 -45 12z"/>
<path d="M5324 3895 c-29 -44 -35 -97 -19 -160 21 -80 56 -134 131 -204 229
-214 692 -266 1064 -119 82 32 103 47 92 65 -5 8 -36 9 -125 0 -339 -31 -842
87 -988 233 -45 45 -65 87 -84 183 -7 36 -48 38 -71 2z"/>
<path d="M8407 3837 c-82 -105 -210 -227 -398 -378 -82 -66 -149 -127 -149
-136 0 -30 125 -1 249 60 138 67 253 183 322 322 55 113 78 215 49 215 -5 0
-37 -37 -73 -83z"/>
<path d="M10046 3873 c-23 -70 -46 -216 -46 -288 0 -94 25 -219 75 -375 53
-165 57 -221 21 -321 -44 -124 -156 -259 -369 -444 -122 -106 -171 -168 -193
-243 -27 -91 0 -217 59 -280 75 -81 238 -84 309 -5 34 37 40 143 8 143 -6 0
-27 -7 -47 -15 -19 -8 -46 -15 -60 -15 -34 0 -73 42 -73 80 0 89 88 189 332
376 186 144 245 254 236 438 -5 98 -46 230 -142 462 -57 140 -78 250 -75 408
3 133 -9 158 -35 79z"/>
<path d="M4765 3904 c-174 -25 -297 -77 -383 -162 -81 -79 -107 -137 -107
-232 0 -63 5 -85 31 -140 53 -112 173 -211 329 -271 286 -112 834 -143 1210
-68 177 35 455 139 480 180 18 27 -18 27 -160 -2 -130 -27 -178 -31 -361 -36
-164 -4 -232 -2 -310 10 -291 47 -557 180 -640 323 -59 100 -52 186 23 304 33
52 43 74 35 82 -12 12 -98 19 -147 12z"/>
<path d="M8457 3524 c-128 -122 -411 -307 -790 -514 -124 -68 -127 -86 -14
-83 150 3 346 80 522 205 169 120 410 387 403 447 -2 14 -10 27 -18 28 -8 1
-55 -36 -103 -83z"/>
<path d="M8595 3437 c-57 -81 -202 -243 -305 -340 -277 -263 -539 -435 -796
-520 -152 -51 -137 -77 45 -77 112 0 255 25 355 61 264 96 517 358 691 714 72
146 89 205 59 205 -11 0 -32 -19 -49 -43z"/>
<path d="M8744 3393 c-89 -214 -298 -556 -463 -755 -140 -169 -287 -276 -586
-427 -82 -42 -153 -80 -157 -86 -11 -14 -1 -23 62 -55 65 -33 72 -46 71 -125
0 -36 5 -57 15 -66 13 -11 43 15 200 172 374 372 531 567 689 855 85 156 208
439 209 483 1 48 -21 51 -40 4z"/>
<path d="M9500 3371 c-137 -46 -237 -109 -332 -210 -85 -90 -120 -162 -126
-262 -7 -125 32 -232 121 -326 118 -125 293 -151 458 -68 58 29 212 178 224
215 13 42 -10 45 -84 11 -92 -42 -201 -65 -257 -53 -148 32 -226 163 -195 329
26 140 114 249 263 324 43 21 78 44 78 49 0 16 -90 10 -150 -9z"/>
<path d="M9767 3356 c-93 -34 -190 -125 -238 -221 -85 -172 -48 -356 75 -383
103 -22 200 21 273 121 105 143 133 299 74 414 -35 69 -109 97 -184 69z"/>
<path d="M3114 3275 c-34 -36 -64 -115 -64 -166 0 -129 184 -322 374 -394 111
-42 435 -81 451 -55 13 21 -17 37 -135 70 -147 41 -210 72 -282 138 -103 96
-167 219 -183 355 -8 63 -32 87 -86 87 -35 0 -47 -6 -75 -35z"/>
<path d="M9120 3266 c-211 -88 -381 -206 -496 -344 -52 -61 -124 -189 -124
-219 0 -23 20 -24 49 -4 16 12 90 50 165 87 160 77 219 126 277 228 68 118
128 203 165 231 31 24 44 46 27 45 -5 -1 -33 -11 -63 -24z"/>
<path d="M6585 3241 c-272 -103 -410 -175 -745 -390 -287 -184 -455 -268 -696
-349 -147 -49 -313 -87 -454 -103 -107 -12 -140 -26 -140 -60 0 -10 12 -27 27
-39 39 -31 52 -58 53 -112 0 -40 4 -50 25 -64 24 -16 32 -16 108 -1 111 22
187 48 347 119 302 133 567 300 905 569 219 174 391 284 640 409 72 37 94 60
53 59 -12 0 -68 -17 -123 -38z"/>
<path d="M2070 3115 c-174 -37 -325 -116 -459 -241 -96 -88 -79 -98 50 -30 46
25 120 57 164 72 70 24 95 28 200 28 115 0 126 -2 242 -42 67 -22 193 -73 280
-113 87 -39 196 -87 243 -108 l85 -36 175 0 c96 0 210 -4 253 -9 67 -8 77 -7
77 7 0 56 -407 294 -655 383 -248 89 -500 123 -655 89z"/>
<path d="M6745 3066 c-168 -73 -384 -178 -458 -222 -140 -84 -271 -213 -457
-453 -112 -144 -106 -155 36 -65 49 31 224 123 389 205 176 87 328 169 367
198 72 54 167 160 248 276 87 127 58 141 -125 61z"/>
<path d="M7422 3031 c-275 -204 -391 -425 -311 -596 27 -59 142 -178 167 -173
20 4 19 11 -8 103 -27 93 -27 215 0 295 25 75 98 198 189 319 64 85 76 111 51
111 -4 0 -44 -27 -88 -59z"/>
<path d="M7098 3001 c-109 -35 -208 -113 -262 -205 -59 -102 -68 -197 -25
-296 22 -52 92 -124 112 -117 8 2 12 36 12 103 0 94 2 103 38 177 41 83 93
154 194 259 91 96 68 122 -69 79z"/>
<path d="M1935 2665 c-120 -17 -159 -27 -300 -75 -207 -72 -420 -182 -641
-331 -201 -137 -200 -162 3 -76 524 223 880 275 1413 208 323 -41 450 -38 613
16 87 29 117 57 98 91 -29 54 -335 122 -723 162 -222 22 -332 24 -463 5z"/>
<path d="M8704 2566 c-193 -95 -319 -180 -424 -286 -164 -163 -235 -318 -251
-543 -11 -165 -29 -264 -75 -406 -39 -124 -39 -165 1 -119 61 71 222 395 334
673 63 156 116 257 175 333 60 79 227 237 346 329 55 42 100 80 100 85 0 24
-73 0 -206 -66z"/>
<path d="M3546 2594 c-208 -45 -378 -137 -512 -277 -190 -199 -234 -424 -127
-644 105 -216 359 -343 685 -343 273 0 476 81 658 262 78 76 160 182 160 204
0 21 -31 17 -101 -15 -131 -59 -316 -101 -444 -101 -131 0 -267 54 -357 142
-65 63 -92 125 -92 208 0 85 26 143 101 221 140 147 335 228 549 229 72 0 94
3 105 16 11 14 10 18 -5 30 -26 18 -158 61 -230 73 -85 15 -308 12 -390 -5z"/>
<path d="M5818 2497 c-85 -57 -196 -111 -376 -186 -181 -75 -269 -125 -369
-211 -114 -97 -194 -202 -323 -427 -189 -331 -279 -452 -492 -665 -187 -185
-359 -318 -515 -397 -164 -82 20 -61 282 33 124 45 337 149 430 212 104 69
188 147 259 238 87 113 118 167 255 449 66 136 141 279 168 319 64 96 165 197
255 255 203 130 507 382 497 411 -3 8 -27 -3 -71 -31z"/>
<path d="M8963 2502 c-299 -155 -555 -559 -594 -935 -13 -129 -47 -234 -109
-336 -27 -45 -50 -87 -50 -92 0 -32 71 16 140 96 108 124 206 316 320 625 39
107 90 231 113 275 49 95 136 213 223 306 35 38 64 73 64 79 0 19 -54 10 -107
-18z"/>
<path d="M9140 2384 c-57 -32 -159 -131 -215 -209 -65 -90 -126 -221 -193
-410 -84 -239 -108 -299 -149 -387 -35 -75 -38 -108 -10 -108 24 0 184 175
241 262 73 112 94 156 196 407 48 119 113 267 144 330 51 102 62 141 39 141
-4 0 -28 -12 -53 -26z"/>
<path d="M9420 2378 c-60 -41 -107 -115 -156 -248 -95 -258 -174 -394 -319
-550 -104 -111 -98 -127 23 -52 199 123 326 244 384 362 36 73 129 410 132
475 1 38 -20 43 -64 13z"/>
<path d="M3988 2354 c-77 -23 -168 -92 -205 -154 -28 -45 -33 -64 -33 -115 0
-116 91 -219 218 -246 76 -16 224 -5 304 21 162 55 263 168 239 270 -11 51
-24 71 -74 118 -114 104 -307 150 -449 106z"/>
<path d="M6174 2324 c-38 -150 181 -255 411 -196 44 11 123 38 176 61 53 23
111 41 128 41 36 0 52 24 30 45 -8 8 -43 22 -79 31 -77 20 -176 15 -345 -16
-60 -11 -134 -20 -164 -20 -50 0 -57 3 -92 40 -45 47 -56 49 -65 14z"/>
<path d="M1879 2230 c-262 -47 -544 -169 -836 -362 -130 -85 -282 -197 -303
-223 -14 -17 -13 -18 10 -13 14 3 102 42 195 86 261 123 438 184 650 224 99
18 161 21 625 25 289 3 523 9 533 14 9 6 17 16 17 24 0 43 -236 170 -395 211
-138 36 -343 42 -496 14z"/>
<path d="M7000 2175 c-153 -34 -281 -105 -381 -212 -163 -172 -185 -424 -54
-628 39 -62 127 -120 240 -157 97 -32 242 -31 335 1 175 61 309 194 400 397
51 113 39 120 -78 40 -131 -89 -265 -127 -370 -105 -102 21 -192 81 -229 153
-9 17 -18 58 -21 93 -4 54 -1 70 22 117 60 122 178 185 436 233 60 11 59 32
-5 56 -67 26 -209 31 -295 12z"/>
<path d="M5819 2142 c-37 -10 -85 -30 -108 -45 -35 -23 -42 -33 -39 -55 3 -26
5 -27 63 -28 44 0 102 -14 217 -52 192 -64 282 -79 370 -65 90 16 168 47 216
89 54 46 56 68 5 60 -93 -15 -195 -18 -240 -7 -26 7 -92 32 -148 56 -95 41
-188 66 -244 64 -14 0 -56 -8 -92 -17z"/>
<path d="M5509 2068 c-83 -50 -274 -273 -361 -421 -63 -108 -81 -161 -81 -242
1 -86 29 -170 58 -170 17 0 21 12 31 95 24 192 134 406 328 635 41 50 76 95
76 102 0 22 -16 22 -51 1z"/>
<path d="M7324 2036 c-226 -52 -343 -236 -219 -345 56 -49 119 -60 217 -40
132 28 253 132 272 234 9 48 -22 118 -63 139 -43 23 -136 28 -207 12z"/>
<path d="M5754 1855 c-209 -45 -352 -221 -398 -488 -14 -77 -10 -107 13 -107
3 0 29 35 58 78 122 183 253 291 423 347 72 24 231 25 316 2 34 -9 69 -17 78
-17 31 0 15 30 -41 76 -133 109 -283 145 -449 109z"/>
<path d="M1925 1819 c-122 -13 -290 -48 -385 -81 -125 -44 -228 -101 -364
-201 -191 -141 -326 -213 -551 -296 -221 -82 -237 -90 -199 -105 49 -19 306 7
479 49 211 51 392 122 740 290 226 110 268 127 368 156 128 35 260 49 489 49
270 0 288 11 108 68 -223 71 -454 95 -685 71z"/>
<path d="M4444 1706 c-39 -30 -90 -79 -114 -110 -48 -63 -129 -133 -330 -284
-88 -66 -187 -154 -284 -252 -191 -194 -364 -340 -496 -421 -30 -18 -58 -38
-62 -43 -45 -66 264 6 472 109 299 150 626 454 792 739 23 39 62 115 86 170
68 154 49 181 -64 92z"/>
<path d="M6000 1580 c-124 -15 -301 -98 -398 -185 -33 -30 -93 -103 -133 -162
-172 -255 -355 -371 -479 -304 -40 21 -90 106 -90 153 0 43 28 95 67 126 40
33 44 62 8 62 -65 0 -149 -60 -188 -135 -46 -87 -12 -213 82 -304 66 -64 120
-84 208 -79 145 8 274 109 575 450 213 241 311 298 515 298 83 0 93 2 93 18 0
22 -54 50 -113 57 -82 11 -93 12 -147 5z"/>
<path d="M7762 1558 c-5 -13 -26 -77 -48 -143 -43 -135 -114 -283 -189 -395
-27 -41 -111 -138 -186 -215 -134 -138 -177 -192 -217 -270 -31 -62 -62 -164
-62 -204 l1 -36 31 40 c63 80 156 163 318 285 309 231 397 344 427 551 13 86
14 121 4 204 -15 133 -33 199 -54 203 -10 2 -20 -6 -25 -20z"/>
<path d="M2363 1486 c-89 -17 -126 -29 -398 -131 -459 -173 -648 -224 -909
-249 -96 -9 -121 -14 -121 -26 0 -18 51 -32 240 -65 445 -76 685 -53 1055 100
369 153 474 188 623 206 159 19 172 23 172 44 0 15 -19 25 -101 51 -213 69
-426 96 -561 70z"/>
<path d="M6128 1390 c-81 -14 -174 -49 -240 -92 -38 -25 -149 -127 -283 -262
-228 -229 -280 -271 -394 -309 -113 -39 -235 -33 -491 22 -120 26 -191 26
-272 1 -112 -35 -188 -123 -204 -238 -15 -115 29 -142 66 -41 44 121 148 199
265 199 74 0 134 -28 289 -135 188 -130 300 -146 461 -66 114 56 234 161 509
445 240 248 318 315 417 360 48 22 79 31 172 51 37 7 34 31 -5 44 -87 28 -201
36 -290 21z"/>
<path d="M2909 1255 c-112 -18 -193 -46 -304 -105 -247 -132 -522 -205 -869
-231 -244 -18 -526 10 -817 81 -288 70 -569 80 -711 23 -74 -30 -49 -40 110
-46 158 -5 197 -14 622 -147 356 -111 668 -158 975 -147 343 13 604 78 865
214 69 36 180 95 248 130 68 36 180 88 250 117 79 32 127 57 127 66 0 19 -64
37 -180 50 -120 13 -208 12 -316 -5z"/>
<path d="M7429 1231 c-26 -16 -120 -69 -210 -118 -158 -86 -164 -90 -198 -146
-55 -89 -120 -173 -210 -270 -97 -104 -141 -170 -141 -210 l0 -29 52 46 c28
24 115 79 192 122 248 136 297 166 356 220 70 65 146 174 200 285 60 123 46
155 -41 100z"/>
<path d="M3490 1161 c-305 -108 -421 -163 -622 -298 -217 -145 -367 -214 -592
-273 -121 -31 -204 -46 -339 -59 -88 -9 -107 -14 -93 -28 13 -13 422 -16 574
-4 427 34 651 119 940 358 120 99 373 344 366 354 -12 19 -75 6 -234 -50z"/>
<path d="M6402 1160 c-18 -11 -93 -71 -165 -132 -164 -137 -250 -199 -349
-249 -56 -28 -78 -45 -78 -58 0 -23 18 -31 95 -38 181 -16 365 91 557 323 58
71 107 134 107 141 3 37 -114 45 -167 13z"/>
<path d="M6650 883 c-99 -99 -192 -164 -345 -238 -215 -105 -409 -155 -600
-155 -75 0 -120 -5 -166 -20 -92 -29 -164 -71 -164 -95 0 -17 17 -24 130 -52
222 -55 310 -66 463 -60 153 6 220 21 331 74 93 44 208 152 291 275 59 84 164
290 172 333 7 40 -29 21 -112 -62z"/>
</g>
</svg>
